<svg xmlns="http://www.w3.org/2000/svg" xmlns:xlink="http://www.w3.org/1999/xlink" version="1.0" id="Ebene_1" x="0px" y="0px" width="100px" height="99.999px" viewBox="0 0 100 99.999" enable-background="new 0 0 100 99.999" xml:space="preserve">
<g>
	<path d="M78.556,1.759H24.939c-6.337,0-11.472,5.136-11.472,11.472v1.359c-4.68,0-8.474,3.793-8.474,8.474   c0,3.605,2.255,6.676,5.431,7.901c-3.175,1.224-5.431,4.295-5.431,7.9c0,3.604,2.254,6.674,5.425,7.899   c-3.171,1.225-5.425,4.295-5.425,7.899c0,3.684,2.355,6.809,5.637,7.977c-3.281,1.168-5.637,4.293-5.637,7.977   c0,4.68,3.794,8.474,8.474,8.474v5.628c0,6.336,5.135,11.472,11.472,11.472h53.616c6.335,0,11.472-5.136,11.472-11.472V13.231   C90.027,6.895,84.891,1.759,78.556,1.759z M13.468,19.243v7.641c-2.105,0-3.82-1.714-3.82-3.82   C9.647,20.957,11.362,19.243,13.468,19.243z M13.468,35.045v7.641c-2.105,0-3.82-1.714-3.82-3.821S11.362,35.045,13.468,35.045z    M13.468,50.843v7.641c-2.105,0-3.82-1.714-3.82-3.82S11.362,50.843,13.468,50.843z M9.647,70.617c0-2.106,1.715-3.82,3.82-3.82   v7.641C11.362,74.438,9.647,72.724,9.647,70.617z M81.424,84.719c0,1.582-1.287,2.868-2.868,2.868H24.939   c-1.581,0-2.868-1.287-2.868-2.868V13.231c0-1.582,1.287-2.868,2.868-2.868h53.616c1.581,0,2.868,1.287,2.868,2.868V84.719z"/>
	<rect x="31.062" y="19.986" width="41.371" height="4.653"/>
	<rect x="31.062" y="32.127" width="41.371" height="4.653"/>
	<rect x="31.062" y="44.269" width="41.371" height="4.653"/>
	<rect x="31.062" y="56.41" width="41.371" height="4.653"/>
	<rect x="31.062" y="68.551" width="41.371" height="4.653"/>
</g>
</svg>