<svg xmlns="http://www.w3.org/2000/svg" xmlns:xlink="http://www.w3.org/1999/xlink" version="1.1" id="Layer_1" x="0px" y="0px" width="100px" height="84.4262295082px" viewBox="0 0 122.043 103.33" enable-background="new 0 0 122.043 103.33" xml:space="preserve">
<path d="M108.826,19.844c0-0.462-0.023-0.918-0.069-1.367C108.803,18.926,108.826,19.382,108.826,19.844L108.826,19.844z"/>
<path d="M108.757,19.844c0-0.462-0.023-0.918-0.069-1.367c-0.685-6.736-6.373-11.994-13.292-11.994h-1.628  c-6.709,0.763-11.921,6.449-11.921,13.362c0,6.909,5.21,12.596,11.915,13.36h1.634C102.775,33.205,108.757,27.223,108.757,19.844z"/>
<path d="M78.675,19.845c0-5.475,2.641-10.319,6.711-13.362H25.192c-7.379,0-13.36,5.982-13.36,13.361s5.981,13.361,13.36,13.361  h60.191C81.314,30.162,78.675,25.317,78.675,19.845z"/>
<path d="M108.826,51.67c0-0.461-0.023-0.917-0.069-1.366C108.803,50.753,108.826,51.209,108.826,51.67L108.826,51.67z"/>
<path d="M108.757,51.67c0-0.461-0.023-0.917-0.069-1.366c-0.685-6.737-6.373-11.994-13.292-11.994h-1.628  c-6.709,0.762-11.921,6.449-11.921,13.361c0,6.91,5.21,12.596,11.915,13.36h1.634C102.775,65.031,108.757,59.05,108.757,51.67z"/>
<path d="M78.675,51.671c0-5.474,2.641-10.319,6.711-13.361H25.192c-7.379,0-13.36,5.981-13.36,13.36  c0,7.38,5.981,13.361,13.36,13.361h60.191C81.314,61.989,78.675,57.144,78.675,51.671z"/>
<path d="M95.479,70.136H35.286c1.169,0.874,2.216,1.901,3.12,3.045h57.035c5.699,0,10.316,4.618,10.316,10.316  s-4.617,10.317-10.316,10.317H38.407c-0.904,1.144-1.95,2.17-3.119,3.044h60.191c7.379,0,13.36-5.982,13.36-13.361  S102.858,70.136,95.479,70.136z"/>
<circle cx="25.287" cy="83.498" r="13.455"/>
</svg>