<svg xmlns="http://www.w3.org/2000/svg" xmlns:xlink="http://www.w3.org/1999/xlink" version="1.1" id="Layer_1" x="0px" y="0px" width="100px" height="100px" viewBox="0 0 100 100" enable-background="new 0 0 100 100" xml:space="preserve">
<g>
	<g>
		<path fill="#000000" d="M82.205,77.463c-2.172,0-3.938,1.767-3.938,3.938c0,2.171,1.767,3.938,3.938,3.938    s3.938-1.767,3.938-3.938C86.144,79.229,84.377,77.463,82.205,77.463z"/>
		<path fill="#000000" d="M65.202,77.463c-2.172,0-3.938,1.767-3.938,3.938c0,2.171,1.767,3.938,3.938,3.938    s3.938-1.767,3.938-3.938C69.141,79.229,67.374,77.463,65.202,77.463z M65.202,84.284c-1.593,0-2.884-1.292-2.884-2.885    c0-1.591,1.291-2.883,2.884-2.883c1.591,0,2.883,1.292,2.883,2.883C68.085,82.992,66.793,84.284,65.202,84.284z"/>
		<path fill="#000000" d="M92.826,37.753H7.753c-2.049,0-3.718,1.66-3.718,3.7v48.725c0,2.04,1.669,3.699,3.718,3.699h85.072    c2.05,0,3.709-1.659,3.709-3.699V41.454C96.535,39.414,94.877,37.753,92.826,37.753z M29.501,48.332    c5.013,0,9.537,2.064,12.784,5.384l-6.988,3.467c-1.672-1.074-3.658-1.704-5.794-1.704c-2.134,0-4.117,0.63-5.789,1.704    l-6.987-3.467C19.972,50.396,24.493,48.332,29.501,48.332z M11.628,66.214c0-3.489,1.012-6.731,2.735-9.481l4.833,6.516    c-0.271,0.943-0.424,1.937-0.424,2.968c0,4.622,2.927,8.554,7.025,10.065l1.859,7.723C18.652,83.079,11.628,75.462,11.628,66.214z     M31.355,84.002l1.859-7.723c4.098-1.513,7.025-5.442,7.025-10.063c0-1.031-0.153-2.025-0.424-2.969l4.832-6.514    c1.724,2.749,2.736,5.991,2.736,9.48C47.383,75.459,40.363,83.073,31.355,84.002z M65.202,87.326    c-3.273,0-5.926-2.651-5.926-5.925s2.652-5.926,5.926-5.926c3.271,0,5.926,2.652,5.926,5.926S68.474,87.326,65.202,87.326z     M82.205,87.326c-3.272,0-5.926-2.651-5.926-5.925s2.653-5.926,5.926-5.926s5.926,2.652,5.926,5.926S85.478,87.326,82.205,87.326z     M90.928,71.624H56.699V45.258h34.229V71.624z"/>
	</g>
	<g>
		<path fill="#000000" d="M29.641,18.348c-2.104,0-3.81,1.706-3.81,3.81c0,1.499,0.873,2.781,2.13,3.403v13.161h3.357v-13.16    c1.258-0.622,2.131-1.905,2.131-3.404C33.45,20.054,31.745,18.348,29.641,18.348z"/>
		<path fill="#000000" d="M22.771,16.067l2.031,2.029c2.674-2.674,7.035-2.65,9.739,0.053l2.007-2.007    C32.723,12.316,26.555,12.283,22.771,16.067z"/>
		<path fill="#000000" d="M19.248,12.544l2.09,2.09c4.567-4.567,12.011-4.526,16.628,0.09l2.067-2.066    C34.262,6.887,24.957,6.836,19.248,12.544z"/>
	</g>
	<g>
		<path fill="#000000" d="M58.077,53.178v0.014l-0.007-0.014V63.77l0.013,0.003l2.691-5.302l-1.401-2.742L58.077,53.178z     M58.077,53.192v4.862l-0.006-4.874L58.077,53.192z"/>
		<path fill="#000000" d="M89.882,63.581l-0.007-5.705v-4.887l-0.006,0.012v-0.015l-2.691,5.303l2.691,5.295L89.882,63.581z     M89.868,53.003l-1.291,2.541l1.291-2.555V53.003z"/>
		<rect x="58.077" y="46.242" fill="#000000" width="1.347" height="0.436"/>
		<rect x="58.077" y="47.603" fill="#000000" width="1.347" height="0.436"/>
		<rect x="58.077" y="48.965" fill="#000000" width="1.347" height="0.436"/>
		<rect x="58.077" y="50.328" fill="#000000" width="1.347" height="0.436"/>
		<rect x="58.077" y="51.689" fill="#000000" width="1.347" height="0.436"/>
		<rect x="58.077" y="65.152" fill="#000000" width="1.347" height="0.436"/>
		<rect x="58.077" y="66.515" fill="#000000" width="1.347" height="0.436"/>
		<rect x="58.077" y="67.877" fill="#000000" width="1.347" height="0.436"/>
		<rect x="58.077" y="69.239" fill="#000000" width="1.347" height="0.436"/>
		<rect x="58.077" y="70.601" fill="#000000" width="1.347" height="0.436"/>
		<rect x="88.53" y="46.242" fill="#000000" width="1.345" height="0.436"/>
		<rect x="88.53" y="47.603" fill="#000000" width="1.345" height="0.436"/>
		<rect x="88.53" y="48.965" fill="#000000" width="1.345" height="0.436"/>
		<rect x="88.53" y="50.328" fill="#000000" width="1.345" height="0.436"/>
		<rect x="88.53" y="51.689" fill="#000000" width="1.345" height="0.436"/>
		<rect x="88.53" y="65.152" fill="#000000" width="1.345" height="0.436"/>
		<rect x="88.53" y="66.515" fill="#000000" width="1.345" height="0.436"/>
		<rect x="88.53" y="67.877" fill="#000000" width="1.345" height="0.436"/>
		<rect x="88.53" y="69.239" fill="#000000" width="1.345" height="0.436"/>
		<rect x="88.53" y="70.601" fill="#000000" width="1.345" height="0.436"/>
	</g>
</g>
</svg>