<svg xmlns="http://www.w3.org/2000/svg" xmlns:xlink="http://www.w3.org/1999/xlink" version="1.1" baseProfile="basic" id="Layer_1" x="0px" y="0px" width="100px" height="100px" viewBox="0 0 100 100" xml:space="preserve">
<g style="fill:white;">
	<g>
		<path d="M86.667,6H13.333C5.013,6,0,10.624,0,19.333v43.333C0,71.376,5.013,76,13.333,76l13.333-0.104c0,6.203,0,13.898,0,20.104    H30c5.495-6.501,11.175-13.499,16.667-20h40C94.987,76,100,71.376,100,62.667V19.333C100,10.624,94.987,6,86.667,6z     M93.333,62.666c0,3.667-3,6.667-6.667,6.667H13.333c-3.667,0-6.667-3-6.667-6.667V19.333c0-3.667,3-6.667,6.667-6.667h73.333    c3.667,0,6.667,3,6.667,6.667V62.666z"/>
		<path d="M21.667,42.821c-0.107-0.753-1.621-2.731-1.667-3.488c-0.091-1.372,1.947-2.817,3.333-3.333h13.333    c0-6.667-2.493-8.125-3.333-10c-1.23-2.75-1.56-4.793,0-6.667C35.238,17.043,39.925,14.976,40,16    c0.518,7.43,2.064,11.009,4.141,12.477c1.25,0.886,2.34,1.655,2.914,3.001c3.545,8.265,4.909,10.9,6.279,11.188h3.334l0,0v16.667    l-10,3.334c0,0-13.333,0-16.667,0c-1.341,0-5.426-2.568-5.947-3.708c-0.306-0.654,0.107-2.203-0.248-2.836    c-0.524-0.934-2.737-2.105-2.731-3.38c0-0.905,1.152-2.476,1.064-3.379C22.064,48.456,20,46.907,20,46    C20.006,45.048,21.807,43.764,21.667,42.821z"/>
	</g>
	<path d="M60,59.333c0,1.179,1.985,3.334,3.333,3.334h3.334c1.348,0,3.333-2.155,3.333-3.334V42.667   c0-1.178-1.985-3.333-3.333-3.333h-3.334c-1.348,0-3.333,2.151-3.333,3.333V59.333z"/>
</g>
</svg>
