<svg xmlns="http://www.w3.org/2000/svg" xmlns:xlink="http://www.w3.org/1999/xlink" version="1.1" id="Layer_1" x="0px" y="0px" width="100px" height="94.6004319654px" viewBox="0 0 463.893 438.877" enable-background="new 0 0 463.893 438.877" xml:space="preserve">
<path d="M232.272,88.949L79.937,223.837v192.749c0,4.979,4.023,8.971,9.001,8.971h95.205v-84.51c0-4.979,3.994-9,8.971-9h78.229  c4.978,0,8.97,4.021,8.97,9v84.51h95.235c4.979,0,8.972-3.992,8.972-8.971V223.779L232.272,88.949z M276.328,277.105h-85.096V224.74  h85.096V277.105z"/>
<path id="rect2404" d="M79.937,42.699h54.771l-0.479,32.438l-54.293,49.048V42.699z"/>
<path id="path2399" d="M231.388,24.746L15.334,216.053l22.758,25.676l194.18-171.952l194.136,171.952l22.715-25.676L233.113,24.746  l-0.884-0.76L231.388,24.746z"/>
</svg>