<svg xmlns="http://www.w3.org/2000/svg" xmlns:xlink="http://www.w3.org/1999/xlink" version="1.1" id="Layer_1" x="0px" y="0px" width="100px" height="100px" viewBox="0 0 100 100" enable-background="new 0 0 100 100" xml:space="preserve">
<g>
	<path d="M55.076,41.137c-0.353-0.075-0.622-0.151-0.959-0.226V28.788c5.604,0.904,11.528,3.359,17.053,7.246l10.771-15.209   c-7.531-6.043-16.577-9.502-27.824-10.184V0h-5.421v10.545c-17.882,0.476-28.812,10.728-28.812,24.818v0.226   c0,15.819,12.516,20.545,28.812,24.305v12.77c-7.262-0.928-14.178-3.966-20.483-8.986L16.224,77.993   c8.629,7.726,20.17,11.969,32.472,12.715v9.185h5.421v-9.074c18.032-0.483,29.934-9.811,29.934-25.254v-0.229   C84.051,50.798,72.95,45.024,55.076,41.137z M41.645,33.594v-0.23c0-2.633,2.34-4.751,7.051-4.949v11.088   C43.215,37.838,41.645,36.295,41.645,33.594z M62.294,67.666c0,3.189-2.875,5.132-8.177,5.299V61.289   c6.389,1.856,8.177,3.53,8.177,6.155V67.666z"/>
</g>
</svg>