<svg xmlns="http://www.w3.org/2000/svg" xmlns:xlink="http://www.w3.org/1999/xlink" version="1.1" id="Layer_1" x="0px" y="0px" width="100px" height="76.846px" viewBox="0 0 100 76.846" enable-background="new 0 0 100 76.846" xml:space="preserve">
<g>
	<g>
		<g>
			<polygon points="66.703,47.132 100,20.494 100,73.77    "/>
		</g>
		<g>
			<polygon points="33.298,47.132 0,20.494 0,73.77    "/>
		</g>
		<g>
			<polygon points="3.945,76.846 49.795,40.166 95.644,76.846    "/>
		</g>
		<polygon points="88.729,15.369 88.729,23.236 98.564,15.369   "/>
		<polygon points="10.859,15.369 1.024,15.369 10.859,23.236   "/>
	</g>
	<g>
		<g>
			<path d="M14.958,0v26.228L36.987,43.85l12.808-10.245L62.603,43.85l22.029-17.622V0H14.958z M24.209,6.147h15.368v2.562H24.209     V6.147z M65.164,27.664H24.18v-3.073h40.984V27.664z M65.164,21.517H24.18v-3.074h40.984V21.517z M65.164,15.369H24.18v-3.074     h40.984V15.369z"/>
		</g>
	</g>
</g>
</svg>