<?xml version="1.0" encoding="UTF-8" standalone="no"?>
<svg
   xmlns:dc="http://purl.org/dc/elements/1.1/"
   xmlns:cc="http://creativecommons.org/ns#"
   xmlns:rdf="http://www.w3.org/1999/02/22-rdf-syntax-ns#"
   xmlns:svg="http://www.w3.org/2000/svg"
   xmlns="http://www.w3.org/2000/svg"
   xmlns:sodipodi="http://sodipodi.sourceforge.net/DTD/sodipodi-0.dtd"
   xmlns:inkscape="http://www.inkscape.org/namespaces/inkscape"
   version="1.1"
   id="Layer_1"
   x="0px"
   y="0px"
   width="100px"
   height="100px"
   viewBox="0 0 100 100"
   enable-background="new 0 0 100 100"
   xml:space="preserve"
   inkscape:version="0.48.3.1 r9886"
   sodipodi:docname="unreadmessage.svg"><metadata
   id="metadata3394"><rdf:RDF><cc:Work
       rdf:about=""><dc:format>image/svg+xml</dc:format><dc:type
         rdf:resource="http://purl.org/dc/dcmitype/StillImage" /></cc:Work></rdf:RDF></metadata><defs
   id="defs3392" /><sodipodi:namedview
   pagecolor="#ffffff"
   bordercolor="#666666"
   borderopacity="1"
   objecttolerance="10"
   gridtolerance="10"
   guidetolerance="10"
   inkscape:pageopacity="0"
   inkscape:pageshadow="2"
   inkscape:window-width="640"
   inkscape:window-height="480"
   id="namedview3390"
   showgrid="false"
   inkscape:zoom="2.36"
   inkscape:cx="50"
   inkscape:cy="50"
   inkscape:window-x="7"
   inkscape:window-y="24"
   inkscape:window-maximized="0"
   inkscape:current-layer="Layer_1" />
<path
   d="M87.931,22.333c-14.307,0-28.613,0-42.92,0c-10.33,0-20.659,0-30.989,0c-0.655,0-1.167,0.224-1.536,0.572  c-0.468,0.367-0.787,0.938-0.787,1.717c0,15.156,0,30.312,0,45.467c0,1.161,0,2.323,0,3.484c0,1.25,1.027,2.323,2.29,2.323  c14.307,0,28.613,0,42.92,0c10.329,0,20.659,0,30.989,0c1.249,0,2.322-1.027,2.322-2.29c0-15.155,0-30.311,0-45.466  c0-1.162,0-2.323,0-3.485C90.22,23.406,89.192,22.333,87.931,22.333z M56.908,26.945c7.938,0,15.878,0,23.817,0  c-9.922,6.572-19.845,13.144-29.768,19.716c-9.923-6.572-19.845-13.144-29.768-19.716C33.096,26.945,45.002,26.945,56.908,26.945z   M45.011,71.284c-9.566,0-19.133,0-28.7,0c0-14.017,0-28.033,0-42.05c10.95,7.253,21.9,14.505,32.851,21.758  c0.215,0.143,0.43,0.285,0.645,0.427c0.646,0.429,1.676,0.419,2.32-0.008c11.16-7.392,22.32-14.783,33.48-22.175  c0,13.617,0,27.235,0,40.853c0,0.398,0,0.797,0,1.195C72.075,71.284,58.543,71.284,45.011,71.284z"
   id="path3388"
   style="fill:#ff0000" />
</svg>