<svg xmlns="http://www.w3.org/2000/svg" xmlns:xlink="http://www.w3.org/1999/xlink" version="1.1" id="Layer_1" x="0px" y="0px" width="100px" height="100px" viewBox="0 0 100 100" enable-background="new 0 0 100 100" xml:space="preserve">
<path fill-rule="evenodd" clip-rule="evenodd" d="M0.701,33.317c0,13.688,11.098,24.785,24.786,24.785  c13.688,0,24.785-11.097,24.785-24.785c0-13.688-11.097-24.786-24.785-24.786C11.798,8.532,0.701,19.629,0.701,33.317z   M15.906,33.338v4.78l-9.88-7.405l9.798-7.412v5.175h7.099l2.625,3.318l2.549-3.4l7.249,0.082l-0.075-5.019l10.187,7.33  l-10.03,7.099l-0.075-4.726l-5.175,0.02l-2.155,1.721l0.074,8.078h4.938l-7.562,8.486l-7.255-8.562l4.882,0.068l-0.021-7.942  l-2.067-1.734L15.906,33.338z M100,53.602l-3.522-1.855L50.177,80.291L21.686,67.936l-3.529,2.176l32.02,14.22L100,53.602z   M100,60.333l-3.522-1.855l-46.131,29.3l-28.661-13.11l-3.529,2.176l32.19,14.968L100,60.333z M100,46.87L67.687,32.06  L51.162,42.511c-3.773,10.533-13.844,18.075-25.676,18.075c-0.911,0-1.809-0.049-2.699-0.137l-4.63,2.931l32.312,14.81L100,46.87z   M49.17,54.432c0-3.346,5.563-6.665,12.424-6.665c6.861,0,12.416,3.319,12.416,6.665c0,3.345-5.555,6.663-12.416,6.663  C54.733,61.095,49.17,57.776,49.17,54.432z"/>
</svg>